<svg xmlns="http://www.w3.org/2000/svg" width="200" height="200" style=""><rect id="backgroundrect" width="100%" height="100%" x="0" y="0" fill="none" stroke="none" class="" style=""/>

 <g style="" class="currentLayer">
  <title>Layer 1</title>
  <g id="svg_1" class="" transform="">
   <g id="svg_2" transform="">
    <g id="svg_3" transform="">
     <path fill="#7d12ff" id="svg_4" d="m36.330413818359375,118.78612899780273 c-4.018218517303467,0 -7.275663375854492,-2.400597095489502 -7.275663375854492,-5.366826057434082 l0,-26.834129333496094 c0,-2.9640021324157715 3.25744366645813,-5.366826057434082 7.275663375854492,-5.366826057434082 s7.275663375854492,2.4028236865997314 7.275663375854492,5.366826057434082 l0,26.834129333496094 c0,2.9595484733581543 -3.25744366645813,5.366826057434082 -7.275663375854492,5.366826057434082 z" transform=""/>
    </g>
    <g id="svg_5" transform="">
     <path fill="#7d12ff" id="svg_6" d="m57.5535888671875,132.2054557800293 c-4.018218517303467,0 -7.275663375854492,-2.4028236865997314 -7.275663375854492,-5.366826057434082 l0,-53.67716598510742 c0,-2.9640021324157715 3.25744366645813,-5.366826057434082 7.275663375854492,-5.366826057434082 s7.275663375854492,2.4028236865997314 7.275663375854492,5.366826057434082 l0,53.67716598510742 c0.0030189459212124348,2.9640021324157715 -3.25744366645813,5.366826057434082 -7.275663375854492,5.366826057434082 z" transform=""/>
    </g>
    <g id="svg_7" transform="">
     <path fill="#7d12ff" id="svg_8" d="m78.77682495117188,125.49355697631836 c-4.018218517303467,0 -7.275663375854492,-2.4028236865997314 -7.275663375854492,-5.366826057434082 l0,-40.253421783447266 c0,-2.9640021324157715 3.25744366645813,-5.366826057434082 7.275663375854492,-5.366826057434082 c4.018218517303467,0 7.278682231903076,2.4028236865997314 7.278682231903076,5.366826057434082 l0,40.253421783447266 c-0.0030189459212124348,2.9640021324157715 -3.260463237762451,5.366826057434082 -7.278682231903076,5.366826057434082 z" transform=""/>
    </g>
    <g id="svg_9" transform="">
     <path fill="#7d12ff" id="svg_10" d="m100.00001525878906,138.91508102416992 c-4.018218517303467,0 -7.275663375854492,-2.400597095489502 -7.275663375854492,-5.366826057434082 l0,-67.09423065185547 c0,-2.9640021324157715 3.25744366645813,-5.366826057434082 7.275663375854492,-5.366826057434082 s7.275663375854492,2.4028236865997314 7.275663375854492,5.366826057434082 l0,67.09200286865234 c0,2.966229200363159 -3.25744366645813,5.369052886962891 -7.275663375854492,5.369052886962891 z" transform=""/>
    </g>
    <g id="svg_11" transform="">
     <path fill="#7d12ff" id="svg_12" d="m121.22018432617188,152.3321189880371 c-4.015199184417725,0 -7.275663375854492,-2.4028236865997314 -7.275663375854492,-5.366826057434082 l0,-93.93058776855469 c0,-2.9640021324157715 3.260463237762451,-5.366826057434082 7.275663375854492,-5.366826057434082 c4.021237850189209,0 7.275663375854492,2.4028236865997314 7.275663375854492,5.366826057434082 l0,93.93058776855469 c0,2.9640021324157715 -3.254425287246704,5.366826057434082 -7.275663375854492,5.366826057434082 z" transform=""/>
    </g>
    <g id="svg_13" transform="">
     <path fill="#7d12ff" id="svg_14" d="m142.4493865966797,132.2054557800293 c-4.021237850189209,0 -7.275663375854492,-2.4028236865997314 -7.275663375854492,-5.366826057434082 l0,-53.67716598510742 c0,-2.9640021324157715 3.254425287246704,-5.366826057434082 7.275663375854492,-5.366826057434082 c4.015199184417725,0 7.275663375854492,2.4028236865997314 7.275663375854492,5.366826057434082 l0,53.67716598510742 c0,2.9640021324157715 -3.260463237762451,5.366826057434082 -7.275663375854492,5.366826057434082 z" transform=""/>
    </g>
    <g id="svg_15" transform="">
     <path fill="#7d12ff" id="svg_16" d="m163.66958618164062,112.07648849487305 c-4.018218517303467,0 -7.275663375854492,-2.4028236865997314 -7.275663375854492,-5.364598751068115 l0,-13.419291496276855 c0,-2.9640021324157715 3.25744366645813,-5.366826057434082 7.275663375854492,-5.366826057434082 s7.275663375854492,2.4028236865997314 7.275663375854492,5.366826057434082 l0,13.419291496276855 c0,2.9617745876312256 -3.25744366645813,5.364598751068115 -7.275663375854492,5.364598751068115 z" transform=""/>
    </g>
   </g>
  </g>
  <g id="svg_17"/>
  <g id="svg_18"/>
  <g id="svg_19"/>
  <g id="svg_20"/>
  <g id="svg_21"/>
  <g id="svg_22"/>
  <g id="svg_23"/>
  <g id="svg_24"/>
  <g id="svg_25"/>
  <g id="svg_26"/>
  <g id="svg_27"/>
  <g id="svg_28"/>
  <g id="svg_29"/>
  <g id="svg_30"/>
  <g id="svg_31"/>
 </g>
</svg>